<svg xmlns="http://www.w3.org/2000/svg" xmlns:xlink="http://www.w3.org/1999/xlink" zoomAndPan="magnify" preserveAspectRatio="xMidYMid meet" version="1.0" viewBox="97.87 479.15 1276.58 556.38"><defs><g/><clipPath id="7ff63d3aa6"><path d="M 0.640625 0 L 1293.519531 0 L 1293.519531 550 L 0.640625 550 Z M 0.640625 0 " clip-rule="nonzero"/></clipPath><clipPath id="7f82ac350f"><rect x="0" width="1294" y="0" height="550"/></clipPath><clipPath id="ecef1a072f"><path d="M 212 222 L 1066 222 L 1066 668.640625 L 212 668.640625 Z M 212 222 " clip-rule="nonzero"/></clipPath><clipPath id="c7c09257e3"><rect x="0" width="854" y="0" height="447"/></clipPath><clipPath id="c84a70f52e"><rect x="0" width="110" y="0" height="116"/></clipPath><clipPath id="92dc0d5b85"><rect x="0" width="153" y="0" height="62"/></clipPath><clipPath id="499cff2af4"><rect x="0" width="210" y="0" height="62"/></clipPath><clipPath id="b07cd7c008"><rect x="0" width="1294" y="0" height="669"/></clipPath></defs><g transform="matrix(1, 0, 0, 1, 86, 438)"><g clip-path="url(#b07cd7c008)"><g clip-path="url(#7ff63d3aa6)"><g transform="matrix(1, 0, 0, 1, 0, 0.000000000000113687)"><g clip-path="url(#7f82ac350f)"><g fill="#000000" fill-opacity="1"><g transform="translate(0.923964, 376.857205)"><g><path d="M 11.421875 0.953125 C 10.785156 0.316406 10.785156 -0.316406 11.421875 -0.953125 L 200.46875 -329.03125 L 117.140625 -329.03125 C 97.453125 -329.03125 81.257812 -328.789062 68.5625 -328.3125 C 55.863281 -327.84375 45.304688 -326.894531 36.890625 -325.46875 C 28.484375 -324.039062 20.789062 -321.578125 13.8125 -318.078125 C 13.488281 -318.078125 13.171875 -318.078125 12.859375 -318.078125 C 12.535156 -318.078125 12.21875 -318.078125 11.90625 -318.078125 C 11.269531 -318.710938 10.953125 -319.347656 10.953125 -319.984375 L 10.953125 -330.9375 C 10.953125 -332.53125 11.585938 -333.328125 12.859375 -333.328125 L 214.75 -333.328125 C 215.382812 -333.328125 215.863281 -333.007812 216.1875 -332.375 C 216.820312 -331.414062 216.820312 -330.617188 216.1875 -329.984375 L 27.140625 -1.90625 L 110.46875 -1.90625 C 129.832031 -1.90625 145.863281 -2.140625 158.5625 -2.609375 C 171.257812 -3.085938 181.894531 -4.117188 190.46875 -5.703125 C 199.039062 -7.296875 206.816406 -9.679688 213.796875 -12.859375 C 214.429688 -13.171875 215.066406 -13.171875 215.703125 -12.859375 C 216.335938 -12.535156 216.65625 -11.898438 216.65625 -10.953125 L 216.65625 0 C 216.65625 1.269531 216.019531 1.90625 214.75 1.90625 L 12.859375 1.90625 C 12.222656 1.90625 11.742188 1.585938 11.421875 0.953125 Z M 11.421875 0.953125 "/></g></g></g><g fill="#000000" fill-opacity="1"><g transform="translate(192.811805, 376.857205)"><g><path d="M 325.21875 -65.71875 C 325.539062 -66.351562 326.019531 -66.671875 326.65625 -66.671875 C 326.96875 -66.671875 327.441406 -66.507812 328.078125 -66.1875 C 329.035156 -65.238281 329.195312 -64.285156 328.5625 -63.328125 C 312.375 -41.742188 292.296875 -25 268.328125 -13.09375 C 244.359375 -1.1875 219.039062 4.765625 192.375 4.765625 L 187.609375 4.765625 C 164.753906 4.128906 143.25 -0.628906 123.09375 -9.515625 C 102.9375 -18.410156 85.238281 -30.632812 70 -46.1875 C 54.757812 -61.738281 42.929688 -79.753906 34.515625 -100.234375 C 26.109375 -120.710938 21.90625 -142.535156 21.90625 -165.703125 C 21.90625 -188.878906 26.109375 -210.625 34.515625 -230.9375 C 42.929688 -251.257812 54.757812 -269.195312 70 -284.75 C 85.238281 -300.300781 102.9375 -312.597656 123.09375 -321.640625 C 143.25 -330.691406 164.753906 -335.378906 187.609375 -335.703125 L 192.375 -335.703125 C 208.5625 -335.703125 224.273438 -333.476562 239.515625 -329.03125 L 240.46875 -329.03125 C 241.101562 -328.71875 242.210938 -328.242188 243.796875 -327.609375 L 245.234375 -327.609375 C 279.191406 -316.492188 306.96875 -296.492188 328.5625 -267.609375 C 329.195312 -266.660156 329.035156 -265.867188 328.078125 -265.234375 L 320.46875 -257.140625 L 97.140625 -33.8125 C 123.484375 -11.90625 153.800781 -0.476562 188.09375 0.46875 L 192.375 0.46875 C 218.40625 0.789062 243.164062 -4.914062 266.65625 -16.65625 C 290.144531 -28.40625 309.664062 -44.757812 325.21875 -65.71875 Z M 36.671875 -165.703125 C 36.347656 -140.941406 41.1875 -117.289062 51.1875 -94.75 C 61.1875 -72.21875 75.394531 -52.695312 93.8125 -36.1875 L 316.65625 -259.03125 C 309.664062 -274.59375 299.820312 -288.003906 287.125 -299.265625 C 274.425781 -310.535156 259.984375 -318.710938 243.796875 -323.796875 L 242.84375 -323.796875 C 241.257812 -324.429688 240.148438 -324.75 239.515625 -324.75 L 238.5625 -325.21875 C 223.320312 -329.664062 207.925781 -331.890625 192.375 -331.890625 L 188.09375 -331.890625 C 166.820312 -331.253906 146.976562 -326.492188 128.5625 -317.609375 C 110.15625 -308.722656 94.125 -296.738281 80.46875 -281.65625 C 66.820312 -266.570312 56.109375 -249.109375 48.328125 -229.265625 C 40.554688 -209.429688 36.671875 -188.242188 36.671875 -165.703125 Z M 36.671875 -165.703125 "/></g></g></g><g fill="#000000" fill-opacity="1"><g transform="translate(502.785858, 376.857205)"><g><path d="M 144.28125 -333.328125 C 163.320312 -333.328125 180.617188 -328.640625 196.171875 -319.265625 C 211.734375 -309.898438 224.117188 -297.441406 233.328125 -281.890625 C 242.535156 -266.335938 247.140625 -249.195312 247.140625 -230.46875 L 247.140625 0 C 247.140625 1.269531 246.503906 1.90625 245.234375 1.90625 L 235.703125 1.90625 C 234.429688 1.90625 233.796875 1.269531 233.796875 0 L 233.796875 -230.46875 C 233.796875 -247.613281 229.585938 -263.328125 221.171875 -277.609375 C 212.765625 -291.890625 201.414062 -303.234375 187.125 -311.640625 C 172.84375 -320.054688 157.132812 -324.265625 140 -324.265625 C 120.3125 -324.265625 102.375 -318.628906 86.1875 -307.359375 C 70 -296.097656 58.410156 -281.257812 51.421875 -262.84375 L 51.421875 0 C 51.421875 1.269531 50.785156 1.90625 49.515625 1.90625 L 40 1.90625 C 38.726562 1.90625 38.09375 1.269531 38.09375 0 L 38.09375 -330.9375 C 38.09375 -332.53125 38.726562 -333.328125 40 -333.328125 L 49.515625 -333.328125 C 50.785156 -333.328125 51.421875 -332.53125 51.421875 -330.9375 L 51.421875 -273.796875 C 59.992188 -291.890625 72.691406 -306.253906 89.515625 -316.890625 C 106.335938 -327.523438 124.59375 -333.003906 144.28125 -333.328125 Z M 144.28125 -333.328125 "/></g></g></g><g fill="#000000" fill-opacity="1"><g transform="translate(749.431451, 376.857205)"><g><path d="M 49.515625 1.90625 C 48.878906 1.90625 46.816406 1.90625 43.328125 1.90625 C 39.835938 1.90625 38.09375 1.90625 38.09375 1.90625 L 38.09375 -333.328125 C 38.09375 -333.328125 38.25 -333.328125 38.5625 -333.328125 C 38.882812 -333.328125 39.363281 -333.328125 40 -333.328125 C 40.632812 -333.328125 42.695312 -333.328125 46.1875 -333.328125 C 49.675781 -333.328125 51.421875 -333.328125 51.421875 -333.328125 L 51.421875 1.90625 C 51.421875 1.90625 51.257812 1.90625 50.9375 1.90625 C 50.625 1.90625 50.148438 1.90625 49.515625 1.90625 Z M 49.515625 1.90625 "/></g></g></g><g fill="#000000" fill-opacity="1"><g transform="translate(803.710753, 376.857205)"><g><path d="M 267.609375 -333.328125 C 269.191406 -333.328125 269.984375 -332.53125 269.984375 -330.9375 L 269.984375 -319.984375 C 269.984375 -319.347656 269.664062 -318.710938 269.03125 -318.078125 C 268.71875 -318.078125 268.242188 -318.078125 267.609375 -318.078125 C 267.609375 -318.078125 267.445312 -318.078125 267.125 -318.078125 C 260.144531 -321.578125 252.367188 -324.039062 243.796875 -325.46875 C 235.222656 -326.894531 224.585938 -327.84375 211.890625 -328.3125 C 199.191406 -328.789062 183.160156 -329.03125 163.796875 -329.03125 L 143.796875 -329.03125 L 143.796875 0 C 143.796875 1.269531 143.164062 1.90625 141.90625 1.90625 L 132.375 1.90625 C 131.101562 1.90625 130.46875 1.269531 130.46875 0 L 130.46875 -329.03125 L 110.46875 -329.03125 C 90.789062 -329.03125 74.601562 -328.789062 61.90625 -328.3125 C 49.207031 -327.84375 38.648438 -326.894531 30.234375 -325.46875 C 21.828125 -324.039062 14.128906 -321.578125 7.140625 -318.078125 C 6.828125 -318.078125 6.507812 -318.078125 6.1875 -318.078125 C 5.875 -318.078125 5.554688 -318.078125 5.234375 -318.078125 C 4.597656 -318.710938 4.28125 -319.347656 4.28125 -319.984375 L 4.28125 -330.9375 C 4.28125 -332.53125 4.914062 -333.328125 6.1875 -333.328125 Z M 267.609375 -333.328125 "/></g></g></g><g fill="#000000" fill-opacity="1"><g transform="translate(1042.261688, 376.857205)"><g><path d="M 244.28125 -333.328125 C 245.550781 -333.328125 246.1875 -332.53125 246.1875 -330.9375 L 246.1875 0 C 246.1875 1.269531 245.550781 1.90625 244.28125 1.90625 L 234.75 1.90625 C 233.476562 1.90625 232.84375 1.269531 232.84375 0 L 232.84375 -107.609375 L 51.421875 -107.609375 L 51.421875 0 C 51.421875 1.269531 50.785156 1.90625 49.515625 1.90625 L 40 1.90625 C 38.726562 1.90625 38.09375 1.269531 38.09375 0 L 38.09375 -330.9375 C 38.09375 -332.53125 38.726562 -333.328125 40 -333.328125 L 49.515625 -333.328125 C 50.785156 -333.328125 51.421875 -332.53125 51.421875 -330.9375 L 51.421875 -172.375 L 232.84375 -172.375 L 232.84375 -330.9375 C 232.84375 -332.53125 233.476562 -333.328125 234.75 -333.328125 Z M 232.84375 -111.421875 L 232.84375 -168.09375 L 51.421875 -168.09375 L 51.421875 -111.421875 Z M 232.84375 -111.421875 "/></g></g></g></g></g></g><g clip-path="url(#ecef1a072f)"><g transform="matrix(1, 0, 0, 1, 212, 222)"><g clip-path="url(#c7c09257e3)"><g fill="#000000" fill-opacity="1"><g transform="translate(11.34776, 287.162925)"><g><path d="M 167.59375 -33.453125 C 165.070312 -31.554688 160.96875 -28.660156 155.28125 -24.765625 C 149.601562 -20.878906 145.082031 -17.78125 141.71875 -15.46875 C 138.351562 -13.15625 134.09375 -10.257812 128.9375 -6.78125 C 123.78125 -3.3125 119.410156 -0.523438 115.828125 1.578125 C 112.253906 3.679688 108.570312 5.785156 104.78125 7.890625 C 97 12.097656 91.210938 14.203125 87.421875 14.203125 C 83.847656 14.203125 82.0625 12.203125 82.0625 8.203125 C 82.0625 2.097656 86.21875 -7.789062 94.53125 -21.46875 C 102.84375 -35.144531 111.15625 -47.710938 119.46875 -59.171875 C 127.78125 -70.640625 131.9375 -76.691406 131.9375 -77.328125 C 131.9375 -77.960938 131.722656 -78.28125 131.296875 -78.28125 C 128.773438 -75.957031 125.460938 -72.796875 121.359375 -68.796875 C 117.253906 -64.804688 109.414062 -57.707031 97.84375 -47.5 C 86.269531 -37.289062 75.585938 -28.296875 65.796875 -20.515625 C 56.015625 -12.734375 45.707031 -5.632812 34.875 0.78125 C 24.039062 7.207031 15.78125 10.421875 10.09375 10.421875 C -0.207031 10.421875 -5.359375 3.265625 -5.359375 -11.046875 C -5.359375 -23.035156 -1.785156 -38.179688 5.359375 -56.484375 C 12.515625 -74.796875 22.828125 -94 36.296875 -114.09375 C 49.765625 -134.1875 64.96875 -153.019531 81.90625 -170.59375 C 98.84375 -188.164062 118.359375 -202.6875 140.453125 -214.15625 C 162.546875 -225.625 184.535156 -231.359375 206.421875 -231.359375 C 214.835938 -231.359375 219.046875 -228.203125 219.046875 -221.890625 C 219.046875 -213.679688 212.679688 -201.84375 199.953125 -186.375 C 187.222656 -170.90625 173.175781 -157.066406 157.8125 -144.859375 C 142.445312 -132.660156 131.296875 -126.5625 124.359375 -126.5625 C 121.617188 -126.5625 120.25 -127.984375 120.25 -130.828125 C 120.25 -133.671875 122.613281 -137.929688 127.34375 -143.609375 C 132.082031 -149.285156 135.296875 -152.125 136.984375 -152.125 C 137.828125 -152.125 138.25 -151.648438 138.25 -150.703125 C 138.25 -149.765625 136.929688 -147.875 134.296875 -145.03125 C 131.671875 -142.1875 130.359375 -140.34375 130.359375 -139.5 C 130.359375 -138.664062 130.988281 -138.25 132.25 -138.25 C 136.664062 -138.25 145.34375 -143.820312 158.28125 -154.96875 C 171.226562 -166.125 183.429688 -178.59375 194.890625 -192.375 C 206.359375 -206.15625 212.09375 -216.203125 212.09375 -222.515625 C 212.09375 -226.515625 209.460938 -228.515625 204.203125 -228.515625 C 190.523438 -228.515625 175.640625 -224.144531 159.546875 -215.40625 C 143.453125 -206.675781 128.144531 -195.472656 113.625 -181.796875 C 99.101562 -168.117188 85.054688 -152.8125 71.484375 -135.875 C 57.910156 -118.9375 46.179688 -102.3125 36.296875 -86 C 26.410156 -69.695312 18.46875 -54.441406 12.46875 -40.234375 C 6.46875 -26.035156 3.46875 -14.832031 3.46875 -6.625 C 3.46875 1.582031 6.726562 5.6875 13.25 5.6875 C 24.613281 5.6875 47.128906 -8.832031 80.796875 -37.875 C 124.359375 -75.539062 161.707031 -114.148438 192.84375 -153.703125 C 198.101562 -160.234375 202.207031 -163.5 205.15625 -163.5 C 208.101562 -163.5 209.578125 -162.390625 209.578125 -160.171875 C 209.578125 -157.960938 199.367188 -144.234375 178.953125 -118.984375 C 117.929688 -43.453125 87.421875 -0.953125 87.421875 8.515625 C 87.421875 10.203125 88.265625 11.046875 89.953125 11.046875 C 91.640625 11.046875 93.898438 10.359375 96.734375 8.984375 C 99.578125 7.617188 103.679688 5.203125 109.046875 1.734375 C 114.410156 -1.734375 119.09375 -4.835938 123.09375 -7.578125 C 132.769531 -13.890625 146.023438 -22.9375 162.859375 -34.71875 L 184.015625 -47.96875 C 185.484375 -48.8125 187.054688 -49.234375 188.734375 -49.234375 C 190.421875 -49.234375 191.265625 -49.019531 191.265625 -48.59375 C 191.265625 -48.175781 190.953125 -47.757812 190.328125 -47.34375 Z M 167.59375 -33.453125 "/></g></g></g><g fill="#000000" fill-opacity="1"><g transform="translate(163.16054, 287.162925)"><g><path d="M 106.6875 -47.03125 L 109.203125 -44.1875 C 99.523438 -38.289062 91.632812 -33.34375 85.53125 -29.34375 C 79.425781 -25.351562 74.796875 -23.359375 71.640625 -23.359375 C 67.015625 -23.359375 64.703125 -25.359375 64.703125 -29.359375 C 64.703125 -32.296875 66.332031 -38.128906 69.59375 -46.859375 C 72.851562 -55.597656 75.113281 -61.753906 76.375 -65.328125 L 75.4375 -66.28125 C 74.59375 -66.28125 73.644531 -65.859375 72.59375 -65.015625 C 51.34375 -47.972656 37.613281 -36.503906 31.40625 -30.609375 C 25.195312 -24.722656 19.195312 -18.410156 13.40625 -11.671875 C 7.625 -4.941406 4.46875 -1.257812 3.9375 -0.625 C 3.414062 0 3.050781 0.414062 2.84375 0.625 C 2.207031 1.257812 0.0507812 1.578125 -3.625 1.578125 C -7.3125 1.578125 -9.15625 1.257812 -9.15625 0.625 C -8.726562 0 -6.097656 -2.941406 -1.265625 -8.203125 C 10.515625 -21.035156 21.140625 -33.347656 30.609375 -45.140625 L 21.46875 -39.765625 C 11.78125 -33.878906 4.726562 -29.460938 0.3125 -26.515625 L -0.953125 -29.984375 L 18.9375 -42.609375 C 26.09375 -47.234375 32.25 -52.070312 37.40625 -57.125 C 42.5625 -62.175781 46.082031 -66.28125 47.96875 -69.4375 C 49.863281 -72.59375 51.546875 -75.222656 53.015625 -77.328125 C 54.492188 -79.429688 55.863281 -80.484375 57.125 -80.484375 C 58.382812 -80.484375 60.382812 -79.75 63.125 -78.28125 C 63.125 -76.175781 61.441406 -72.492188 58.078125 -67.234375 C 54.710938 -61.972656 51.34375 -57.238281 47.96875 -53.03125 L 42.921875 -47.03125 C 42.921875 -46.601562 43.023438 -46.390625 43.234375 -46.390625 C 43.867188 -46.390625 44.609375 -46.757812 45.453125 -47.5 C 46.296875 -48.238281 49.816406 -51.1875 56.015625 -56.34375 C 62.222656 -61.5 67.640625 -65.914062 72.265625 -69.59375 C 76.898438 -73.28125 82.21875 -76.804688 88.21875 -80.171875 C 94.21875 -83.535156 98.582031 -85.21875 101.3125 -85.21875 C 104.050781 -85.21875 105.421875 -84.585938 105.421875 -83.328125 C 105.421875 -81.640625 100.265625 -78.0625 89.953125 -72.59375 C 87.640625 -71.332031 84.113281 -65.28125 79.375 -54.4375 C 74.644531 -43.601562 72.28125 -35.660156 72.28125 -30.609375 C 72.28125 -29.554688 73.28125 -29.03125 75.28125 -29.03125 C 77.28125 -29.03125 81.222656 -30.925781 87.109375 -34.71875 Z M 106.6875 -47.03125 "/></g></g></g><g fill="#000000" fill-opacity="1"><g transform="translate(238.908864, 287.162925)"><g><path d="M 57.125 -33.765625 C 24.09375 -11.253906 3.050781 0 -6 0 C -8.3125 0 -9.46875 -0.734375 -9.46875 -2.203125 C -9.46875 -8.097656 -1.894531 -21.460938 13.25 -42.296875 C 28.40625 -63.128906 45.875 -85.222656 65.65625 -108.578125 C 45.445312 -108.992188 33.03125 -109.203125 28.40625 -109.203125 C 23.78125 -109.203125 21.46875 -110.359375 21.46875 -112.671875 C 21.46875 -113.515625 22.410156 -113.9375 24.296875 -113.9375 L 69.4375 -113 C 95.101562 -143.082031 109.304688 -158.125 112.046875 -158.125 C 117.722656 -158.125 120.5625 -157.226562 120.5625 -155.4375 C 120.5625 -153.65625 108.882812 -139.398438 85.53125 -112.671875 L 138.5625 -111.734375 C 141.289062 -111.734375 142.65625 -111.363281 142.65625 -110.625 C 142.65625 -109.882812 142.238281 -109.410156 141.40625 -109.203125 C 140.132812 -108.578125 129.71875 -108.265625 110.15625 -108.265625 L 81.75 -108.265625 C 68.070312 -92.691406 58.078125 -81.378906 51.765625 -74.328125 C 45.453125 -67.273438 37.242188 -57.859375 27.140625 -46.078125 C 8.410156 -24.191406 -0.953125 -11.144531 -0.953125 -6.9375 C -0.953125 -6.101562 -0.164062 -5.6875 1.40625 -5.6875 C 2.988281 -5.6875 8.304688 -8.15625 17.359375 -13.09375 C 26.410156 -18.039062 33.25 -22.195312 37.875 -25.5625 L 56.8125 -37.25 Z M 57.125 -33.765625 "/></g></g></g><g fill="#000000" fill-opacity="1"><g transform="translate(279.93903, 287.162925)"><g/></g></g><g fill="#000000" fill-opacity="1"><g transform="translate(344.640706, 287.162925)"><g><path d="M 99.109375 15.46875 C 107.097656 15.46875 115.929688 9.050781 125.609375 -3.78125 C 135.296875 -16.625 144.238281 -32.457031 152.4375 -51.28125 C 160.644531 -70.113281 168.273438 -89.523438 175.328125 -109.515625 C 182.378906 -129.503906 187.898438 -147.335938 191.890625 -163.015625 C 195.890625 -178.691406 197.890625 -188.003906 197.890625 -190.953125 C 197.890625 -193.898438 197.679688 -195.375 197.265625 -195.375 C 195.367188 -195.375 183.375 -183.75 161.28125 -160.5 C 139.1875 -137.25 121.613281 -119.097656 108.5625 -106.046875 C 95.519531 -93.003906 80.269531 -78.488281 62.8125 -62.5 C 26.613281 -29.664062 -14.628906 -0.519531 -60.921875 24.9375 C -62.179688 25.5625 -63.441406 25.875 -64.703125 25.875 C -65.960938 25.875 -66.59375 25.453125 -66.59375 24.609375 C -66.59375 23.773438 -65.859375 23.039062 -64.390625 22.40625 C -33.242188 6.414062 -2.414062 -14.097656 28.09375 -39.140625 C 59.445312 -65.015625 84.800781 -87.789062 104.15625 -107.46875 C 123.507812 -127.144531 138.238281 -142.347656 148.34375 -153.078125 C 158.445312 -163.804688 170.492188 -176.640625 184.484375 -191.578125 C 198.472656 -206.523438 209.148438 -217.890625 216.515625 -225.671875 C 217.773438 -226.929688 218.828125 -227.5625 219.671875 -227.5625 C 220.515625 -227.5625 220.9375 -226.929688 220.9375 -225.671875 C 220.9375 -219.148438 218.9375 -206.945312 214.9375 -189.0625 C 210.9375 -171.175781 205.046875 -150.394531 197.265625 -126.71875 C 189.484375 -103.050781 180.75 -80.273438 171.0625 -58.390625 C 161.382812 -36.503906 149.914062 -18.039062 136.65625 -3 C 123.40625 12.039062 110.148438 19.5625 96.890625 19.5625 C 88.691406 19.5625 82.222656 15.300781 77.484375 6.78125 C 72.753906 -1.738281 70.390625 -12.890625 70.390625 -26.671875 C 70.390625 -40.453125 73.753906 -53.128906 80.484375 -64.703125 C 82.171875 -67.648438 83.644531 -69.125 84.90625 -69.125 C 85.957031 -69.125 86.691406 -68.28125 87.109375 -66.59375 C 85.003906 -63.019531 83.109375 -56.863281 81.421875 -48.125 C 79.742188 -39.394531 78.90625 -30.613281 78.90625 -21.78125 C 78.90625 3.050781 85.640625 15.46875 99.109375 15.46875 Z M 99.109375 15.46875 "/></g></g></g><g fill="#000000" fill-opacity="1"><g transform="translate(517.600037, 287.162925)"><g><path d="M -91.84375 79.859375 L 83.953125 -122.140625 C 85.003906 -123.410156 87.210938 -124.046875 90.578125 -124.046875 C 93.953125 -124.046875 95.640625 -123.203125 95.640625 -121.515625 C 95.640625 -120.878906 95.113281 -120.035156 94.0625 -118.984375 L 22.40625 -38.1875 C 21.351562 -36.925781 20.828125 -36.082031 20.828125 -35.65625 C 20.828125 -35.238281 20.984375 -35.03125 21.296875 -35.03125 C 21.617188 -35.03125 23.671875 -36.660156 27.453125 -39.921875 C 31.242188 -43.179688 43.289062 -51.382812 63.59375 -64.53125 C 83.90625 -77.6875 96.898438 -84.265625 102.578125 -84.265625 C 104.890625 -84.265625 106.046875 -82.796875 106.046875 -79.859375 C 106.046875 -74.171875 102.992188 -67.066406 96.890625 -58.546875 C 90.796875 -50.023438 83.957031 -42.289062 76.375 -35.34375 C 56.8125 -17.039062 47.03125 -7.3125 47.03125 -6.15625 C 47.03125 -5 47.453125 -4.421875 48.296875 -4.421875 C 60.078125 -8.203125 70.382812 -12.722656 79.21875 -17.984375 L 110.15625 -37.5625 L 110.46875 -33.453125 C 88.375 -18.722656 71.90625 -9.359375 61.0625 -5.359375 C 50.226562 -1.367188 43.285156 0.625 40.234375 0.625 C 37.191406 0.625 35.671875 -0.316406 35.671875 -2.203125 C 35.671875 -5.992188 40.984375 -13.570312 51.609375 -24.9375 C 62.234375 -36.300781 72.910156 -47.398438 83.640625 -58.234375 C 94.367188 -69.066406 99.734375 -75.535156 99.734375 -77.640625 C 99.734375 -78.066406 99.421875 -78.28125 98.796875 -78.28125 C 94.160156 -78.28125 83.6875 -73.070312 67.375 -62.65625 C 51.070312 -52.238281 40.238281 -44.875 34.875 -40.5625 C 29.507812 -36.25 24.617188 -32.144531 20.203125 -28.25 C 15.785156 -24.351562 12.15625 -21.035156 9.3125 -18.296875 C 6.46875 -15.566406 3.726562 -12.988281 1.09375 -10.5625 C -1.53125 -8.144531 -3.679688 -6.09375 -5.359375 -4.40625 C -7.046875 -2.726562 -18.9375 10.890625 -41.03125 36.453125 C -63.125 62.015625 -75.851562 77.007812 -79.21875 81.4375 C -82.582031 86.0625 -86.054688 88.375 -89.640625 88.375 C -93.421875 88.164062 -95.3125 87.425781 -95.3125 86.15625 C -95.3125 84.894531 -94.15625 82.796875 -91.84375 79.859375 Z M -91.84375 79.859375 "/></g></g></g><g fill="#000000" fill-opacity="1"><g transform="translate(612.285597, 287.162925)"><g><path d="M 103.84375 -37.5625 L 104.15625 -33.453125 C 70.28125 -10.941406 49.660156 0.3125 42.296875 0.3125 C 41.035156 0.3125 40.40625 -0.421875 40.40625 -1.890625 C 40.40625 -6.304688 42.085938 -12.617188 45.453125 -20.828125 L 47.03125 -25.25 C 47.03125 -25.664062 46.660156 -25.875 45.921875 -25.875 C 45.179688 -25.875 39.023438 -21.664062 27.453125 -13.25 C 16.097656 -4.832031 8.679688 -0.625 5.203125 -0.625 C 1.734375 -0.625 0 -3.78125 0 -10.09375 C 0 -27.5625 9.941406 -44.609375 29.828125 -61.234375 C 49.710938 -77.859375 73.644531 -86.171875 101.625 -86.171875 C 104.15625 -86.171875 105.421875 -85.117188 105.421875 -83.015625 C 105.421875 -80.910156 95.53125 -68.648438 75.75 -46.234375 C 55.96875 -23.828125 46.078125 -10.3125 46.078125 -5.6875 C 46.078125 -4.84375 46.707031 -4.421875 47.96875 -4.421875 C 49.238281 -4.421875 54.609375 -7.15625 64.078125 -12.625 C 73.546875 -18.09375 82.488281 -23.5625 90.90625 -29.03125 Z M 53.65625 -37.25 C 57.226562 -39.976562 64.171875 -47.234375 74.484375 -59.015625 C 84.796875 -70.804688 89.953125 -77.644531 89.953125 -79.53125 C 89.953125 -80.375 89.109375 -80.796875 87.421875 -80.796875 C 77.742188 -80.796875 66.488281 -76.320312 53.65625 -67.375 C 40.820312 -58.4375 29.929688 -48.285156 20.984375 -36.921875 C 12.046875 -25.566406 7.578125 -16.414062 7.578125 -9.46875 C 7.578125 -8.207031 8.207031 -7.578125 9.46875 -7.578125 C 10.726562 -7.578125 12.78125 -8.363281 15.625 -9.9375 C 18.46875 -11.519531 21.9375 -13.726562 26.03125 -16.5625 C 30.132812 -19.40625 33.660156 -21.878906 36.609375 -23.984375 C 46.710938 -31.554688 52.394531 -35.976562 53.65625 -37.25 Z M 53.65625 -37.25 "/></g></g></g><g fill="#000000" fill-opacity="1"><g transform="translate(700.658724, 287.162925)"><g><path d="M 56.1875 -55.546875 C 56.1875 -57.023438 56.710938 -58.707031 57.765625 -60.59375 C 58.816406 -62.488281 59.867188 -63.4375 60.921875 -63.4375 C 61.972656 -63.4375 62.914062 -62.703125 63.75 -61.234375 C 75.539062 -70.492188 81.4375 -77.332031 81.4375 -81.75 C 81.4375 -82.375 80.910156 -82.6875 79.859375 -82.6875 C 73.117188 -82.6875 63.859375 -77.953125 52.078125 -68.484375 C 40.296875 -59.015625 29.828125 -48.125 20.671875 -35.8125 C 11.515625 -23.507812 6.9375 -13.78125 6.9375 -6.625 C 6.9375 -4.726562 7.882812 -3.78125 9.78125 -3.78125 C 17.570312 -3.78125 32.929688 -10.9375 55.859375 -25.25 L 74.796875 -37.5625 L 75.125 -33.453125 C 69.863281 -30.085938 63.863281 -26.300781 57.125 -22.09375 C 32.71875 -6.945312 15.78125 0.625 6.3125 0.625 C 2.101562 0.625 0 -3.789062 0 -12.625 C 0 -21.457031 4.3125 -31.710938 12.9375 -43.390625 C 21.5625 -55.078125 32.394531 -65.234375 45.4375 -73.859375 C 58.488281 -82.484375 70.378906 -86.796875 81.109375 -86.796875 C 85.316406 -86.796875 87.421875 -85.113281 87.421875 -81.75 C 87.421875 -77.113281 83.789062 -71.007812 76.53125 -63.4375 C 69.28125 -55.863281 64.078125 -52.078125 60.921875 -52.078125 C 57.765625 -52.078125 56.1875 -53.234375 56.1875 -55.546875 Z M 56.1875 -55.546875 "/></g></g></g><g fill="#000000" fill-opacity="1"><g transform="translate(759.994837, 287.162925)"><g><path d="M 79.53125 -81.109375 C 79.53125 -81.742188 79.113281 -82.0625 78.28125 -82.0625 C 72.59375 -82.0625 63.75 -77.113281 51.75 -67.21875 C 39.757812 -57.332031 29.347656 -46.5 20.515625 -34.71875 C 31.035156 -38.082031 43.5 -45.65625 57.90625 -57.4375 C 72.320312 -69.226562 79.53125 -77.117188 79.53125 -81.109375 Z M 6.625 -6.625 C 6.625 -3.894531 7.675781 -2.53125 9.78125 -2.53125 C 12.3125 -2.53125 17.992188 -4.265625 26.828125 -7.734375 C 35.660156 -11.203125 42.921875 -14.617188 48.609375 -17.984375 L 79.53125 -37.5625 L 79.859375 -33.453125 C 57.765625 -18.722656 41.296875 -9.359375 30.453125 -5.359375 C 19.617188 -1.367188 12.414062 0.625 8.84375 0.625 C 2.945312 0.625 0 -3.054688 0 -10.421875 C 0 -20.304688 3.578125 -30.191406 10.734375 -40.078125 C 17.890625 -49.972656 26.253906 -58.078125 35.828125 -64.390625 C 45.398438 -70.703125 54.65625 -75.851562 63.59375 -79.84375 C 72.539062 -83.84375 79.328125 -85.84375 83.953125 -85.84375 C 88.585938 -85.84375 90.90625 -84.265625 90.90625 -81.109375 C 90.90625 -73.328125 81.695312 -63.859375 63.28125 -52.703125 C 44.875 -41.554688 29.566406 -34.191406 17.359375 -30.609375 C 10.203125 -20.304688 6.625 -12.3125 6.625 -6.625 Z M 6.625 -6.625 "/></g></g></g></g></g></g><g transform="matrix(1, 0, 0, 1, 818, 113)"><g clip-path="url(#c84a70f52e)"><g fill="#000000" fill-opacity="1"><g transform="translate(8.516858, 44.788094)"><g><path d="M 12.890625 0.53125 C 10.785156 0.53125 8.921875 0.0664062 7.296875 -0.859375 C 5.671875 -1.796875 4.398438 -3.101562 3.484375 -4.78125 C 2.566406 -6.457031 2.109375 -8.378906 2.109375 -10.546875 C 2.109375 -12.703125 2.566406 -14.609375 3.484375 -16.265625 C 4.398438 -17.929688 5.675781 -19.234375 7.3125 -20.171875 C 8.945312 -21.109375 10.820312 -21.578125 12.9375 -21.578125 C 15.175781 -21.578125 17.117188 -21.046875 18.765625 -19.984375 C 20.421875 -18.929688 21.6875 -17.476562 22.5625 -15.625 C 23.4375 -13.78125 23.835938 -11.625 23.765625 -9.15625 L 5.5625 -9.15625 C 5.820312 -7.1875 6.613281 -5.613281 7.9375 -4.4375 C 9.269531 -3.257812 10.9375 -2.671875 12.9375 -2.671875 C 14.3125 -2.671875 15.566406 -2.96875 16.703125 -3.5625 C 17.835938 -4.15625 18.726562 -5.007812 19.375 -6.125 L 23.234375 -6.125 C 22.390625 -4.070312 21.050781 -2.445312 19.21875 -1.25 C 17.382812 -0.0625 15.273438 0.53125 12.890625 0.53125 Z M 5.59375 -12.171875 L 20.359375 -12.171875 C 20.003906 -14.085938 19.15625 -15.597656 17.8125 -16.703125 C 16.476562 -17.816406 14.851562 -18.375 12.9375 -18.375 C 10.988281 -18.375 9.351562 -17.804688 8.03125 -16.671875 C 6.707031 -15.535156 5.894531 -14.035156 5.59375 -12.171875 Z M 5.59375 -12.171875 "/></g></g></g><g fill="#000000" fill-opacity="1"><g transform="translate(33.694802, 44.788094)"><g><path d="M 11.390625 0.53125 C 8.640625 0.53125 6.429688 -0.125 4.765625 -1.4375 C 3.097656 -2.75 2.238281 -4.472656 2.1875 -6.609375 L 5.5625 -6.609375 C 5.613281 -5.335938 6.148438 -4.335938 7.171875 -3.609375 C 8.203125 -2.878906 9.625 -2.515625 11.4375 -2.515625 C 13.03125 -2.515625 14.285156 -2.789062 15.203125 -3.34375 C 16.117188 -3.894531 16.578125 -4.644531 16.578125 -5.59375 C 16.578125 -6.539062 16.097656 -7.3125 15.140625 -7.90625 C 14.179688 -8.5 12.675781 -8.972656 10.625 -9.328125 C 7.914062 -9.785156 5.90625 -10.523438 4.59375 -11.546875 C 3.289062 -12.578125 2.640625 -13.914062 2.640625 -15.5625 C 2.640625 -17.457031 3.359375 -18.929688 4.796875 -19.984375 C 6.242188 -21.046875 8.238281 -21.578125 10.78125 -21.578125 C 13.375 -21.578125 15.445312 -21 17 -19.84375 C 18.5625 -18.695312 19.410156 -17.082031 19.546875 -15 L 16.171875 -15 C 16.066406 -16.164062 15.546875 -17.050781 14.609375 -17.65625 C 13.679688 -18.269531 12.421875 -18.578125 10.828125 -18.578125 C 9.316406 -18.578125 8.132812 -18.3125 7.28125 -17.78125 C 6.425781 -17.25 6 -16.507812 6 -15.5625 C 6 -14.675781 6.429688 -13.984375 7.296875 -13.484375 C 8.160156 -12.984375 9.6875 -12.515625 11.875 -12.078125 C 17.257812 -11.023438 19.953125 -8.835938 19.953125 -5.515625 C 19.953125 -3.703125 19.171875 -2.238281 17.609375 -1.125 C 16.054688 -0.0195312 13.984375 0.53125 11.390625 0.53125 Z M 11.390625 0.53125 "/></g></g></g><g fill="#000000" fill-opacity="1"><g transform="translate(55.223791, 44.788094)"><g><path d="M 12.859375 0.53125 C 10.773438 0.53125 8.921875 0.0507812 7.296875 -0.90625 C 5.671875 -1.875 4.398438 -3.1875 3.484375 -4.84375 C 2.566406 -6.507812 2.109375 -8.410156 2.109375 -10.546875 C 2.109375 -12.679688 2.566406 -14.570312 3.484375 -16.21875 C 4.398438 -17.863281 5.671875 -19.164062 7.296875 -20.125 C 8.921875 -21.09375 10.773438 -21.578125 12.859375 -21.578125 C 14.503906 -21.578125 16.015625 -21.269531 17.390625 -20.65625 C 18.773438 -20.050781 19.9375 -19.191406 20.875 -18.078125 L 20.875 -30 L 24.28125 -30 L 24.28125 0 L 21.484375 0 L 21.078125 -3.25 C 20.140625 -2.082031 18.957031 -1.160156 17.53125 -0.484375 C 16.113281 0.191406 14.554688 0.53125 12.859375 0.53125 Z M 5.515625 -10.546875 C 5.515625 -9.023438 5.84375 -7.675781 6.5 -6.5 C 7.164062 -5.332031 8.078125 -4.414062 9.234375 -3.75 C 10.398438 -3.082031 11.742188 -2.75 13.265625 -2.75 C 14.796875 -2.75 16.144531 -3.082031 17.3125 -3.75 C 18.476562 -4.414062 19.382812 -5.332031 20.03125 -6.5 C 20.675781 -7.675781 21 -9.023438 21 -10.546875 C 21 -12.054688 20.675781 -13.398438 20.03125 -14.578125 C 19.382812 -15.753906 18.476562 -16.671875 17.3125 -17.328125 C 16.144531 -17.992188 14.796875 -18.328125 13.265625 -18.328125 C 11.742188 -18.328125 10.398438 -17.992188 9.234375 -17.328125 C 8.078125 -16.671875 7.164062 -15.753906 6.5 -14.578125 C 5.84375 -13.398438 5.515625 -12.054688 5.515625 -10.546875 Z M 5.515625 -10.546875 "/></g></g></g><g fill="#000000" fill-opacity="1"><g transform="translate(82.672234, 44.788094)"><g><path d="M 12.859375 0 C 10.523438 0 8.71875 -0.660156 7.4375 -1.984375 C 6.15625 -3.304688 5.515625 -5.171875 5.515625 -7.578125 L 5.515625 -17.921875 L 1.09375 -17.921875 L 1.09375 -21.046875 L 3.203125 -21.046875 C 4.171875 -21.046875 4.84375 -21.207031 5.21875 -21.53125 C 5.601562 -21.851562 5.847656 -22.488281 5.953125 -23.4375 L 6.28125 -26.28125 L 8.921875 -26.28125 L 8.921875 -21.046875 L 15.734375 -21.046875 L 15.734375 -17.921875 L 8.921875 -17.921875 L 8.921875 -7.75 C 8.921875 -4.769531 10.285156 -3.28125 13.015625 -3.28125 L 16.015625 -3.28125 L 16.015625 0 Z M 12.859375 0 "/></g></g></g><g fill="#000000" fill-opacity="1"><g transform="translate(2.445833, 98.846606)"><g><path d="M 2.921875 0 L 2.921875 -2.671875 L 14.671875 -13.46875 C 16.023438 -14.738281 17.023438 -15.921875 17.671875 -17.015625 C 18.328125 -18.109375 18.65625 -19.234375 18.65625 -20.390625 C 18.65625 -22.015625 18.109375 -23.316406 17.015625 -24.296875 C 15.921875 -25.285156 14.492188 -25.78125 12.734375 -25.78125 C 10.921875 -25.78125 9.453125 -25.234375 8.328125 -24.140625 C 7.210938 -23.046875 6.625 -21.515625 6.5625 -19.546875 L 3.25 -19.546875 C 3.300781 -21.429688 3.722656 -23.078125 4.515625 -24.484375 C 5.316406 -25.890625 6.410156 -26.976562 7.796875 -27.75 C 9.191406 -28.519531 10.820312 -28.90625 12.6875 -28.90625 C 14.5 -28.90625 16.113281 -28.539062 17.53125 -27.8125 C 18.957031 -27.082031 20.070312 -26.082031 20.875 -24.8125 C 21.6875 -23.539062 22.09375 -22.066406 22.09375 -20.390625 C 22.09375 -18.796875 21.671875 -17.203125 20.828125 -15.609375 C 19.992188 -14.015625 18.703125 -12.40625 16.953125 -10.78125 L 8.765625 -3.328125 L 22.671875 -3.328125 L 22.671875 0 Z M 2.921875 0 "/></g></g></g><g fill="#000000" fill-opacity="1"><g transform="translate(27.826489, 98.846606)"><g><path d="M 14.1875 0.53125 C 11.832031 0.53125 9.796875 -0.0625 8.078125 -1.25 C 6.367188 -2.445312 5.046875 -4.144531 4.109375 -6.34375 C 3.179688 -8.550781 2.71875 -11.164062 2.71875 -14.1875 C 2.71875 -17.21875 3.179688 -19.832031 4.109375 -22.03125 C 5.046875 -24.238281 6.367188 -25.9375 8.078125 -27.125 C 9.796875 -28.3125 11.832031 -28.90625 14.1875 -28.90625 C 16.570312 -28.90625 18.613281 -28.3125 20.3125 -27.125 C 22.019531 -25.9375 23.332031 -24.238281 24.25 -22.03125 C 25.164062 -19.832031 25.625 -17.21875 25.625 -14.1875 C 25.625 -11.164062 25.164062 -8.550781 24.25 -6.34375 C 23.332031 -4.144531 22.019531 -2.445312 20.3125 -1.25 C 18.613281 -0.0625 16.570312 0.53125 14.1875 0.53125 Z M 6.25 -14.1875 C 6.25 -10.695312 6.957031 -7.945312 8.375 -5.9375 C 9.789062 -3.925781 11.726562 -2.921875 14.1875 -2.921875 C 16.644531 -2.921875 18.578125 -3.925781 19.984375 -5.9375 C 21.390625 -7.945312 22.09375 -10.695312 22.09375 -14.1875 C 22.09375 -17.675781 21.390625 -20.425781 19.984375 -22.4375 C 18.578125 -24.457031 16.644531 -25.46875 14.1875 -25.46875 C 11.726562 -25.46875 9.789062 -24.457031 8.375 -22.4375 C 6.957031 -20.425781 6.25 -17.675781 6.25 -14.1875 Z M 6.25 -14.1875 "/></g></g></g><g fill="#000000" fill-opacity="1"><g transform="translate(55.558738, 98.846606)"><g><path d="M 2.921875 0 L 2.921875 -2.671875 L 14.671875 -13.46875 C 16.023438 -14.738281 17.023438 -15.921875 17.671875 -17.015625 C 18.328125 -18.109375 18.65625 -19.234375 18.65625 -20.390625 C 18.65625 -22.015625 18.109375 -23.316406 17.015625 -24.296875 C 15.921875 -25.285156 14.492188 -25.78125 12.734375 -25.78125 C 10.921875 -25.78125 9.453125 -25.234375 8.328125 -24.140625 C 7.210938 -23.046875 6.625 -21.515625 6.5625 -19.546875 L 3.25 -19.546875 C 3.300781 -21.429688 3.722656 -23.078125 4.515625 -24.484375 C 5.316406 -25.890625 6.410156 -26.976562 7.796875 -27.75 C 9.191406 -28.519531 10.820312 -28.90625 12.6875 -28.90625 C 14.5 -28.90625 16.113281 -28.539062 17.53125 -27.8125 C 18.957031 -27.082031 20.070312 -26.082031 20.875 -24.8125 C 21.6875 -23.539062 22.09375 -22.066406 22.09375 -20.390625 C 22.09375 -18.796875 21.671875 -17.203125 20.828125 -15.609375 C 19.992188 -14.015625 18.703125 -12.40625 16.953125 -10.78125 L 8.765625 -3.328125 L 22.671875 -3.328125 L 22.671875 0 Z M 2.921875 0 "/></g></g></g><g fill="#000000" fill-opacity="1"><g transform="translate(80.939393, 98.846606)"><g><path d="M 12.859375 0.53125 C 10.828125 0.53125 9.023438 0.113281 7.453125 -0.71875 C 5.890625 -1.5625 4.660156 -2.710938 3.765625 -4.171875 C 2.878906 -5.628906 2.4375 -7.289062 2.4375 -9.15625 C 2.4375 -10.425781 2.648438 -11.679688 3.078125 -12.921875 C 3.515625 -14.171875 4.140625 -15.390625 4.953125 -16.578125 L 12.9375 -28.390625 L 16.953125 -28.390625 L 10.265625 -18.453125 C 11.234375 -18.773438 12.285156 -18.9375 13.421875 -18.9375 C 15.285156 -18.9375 16.957031 -18.507812 18.4375 -17.65625 C 19.925781 -16.800781 21.097656 -15.644531 21.953125 -14.1875 C 22.804688 -12.726562 23.234375 -11.066406 23.234375 -9.203125 C 23.234375 -7.335938 22.785156 -5.664062 21.890625 -4.1875 C 21.003906 -2.71875 19.78125 -1.5625 18.21875 -0.71875 C 16.664062 0.113281 14.878906 0.53125 12.859375 0.53125 Z M 5.875 -9.203125 C 5.875 -7.929688 6.171875 -6.796875 6.765625 -5.796875 C 7.359375 -4.796875 8.179688 -4.007812 9.234375 -3.4375 C 10.296875 -2.875 11.503906 -2.59375 12.859375 -2.59375 C 14.203125 -2.59375 15.398438 -2.875 16.453125 -3.4375 C 17.515625 -4.007812 18.34375 -4.796875 18.9375 -5.796875 C 19.53125 -6.796875 19.828125 -7.929688 19.828125 -9.203125 C 19.828125 -10.503906 19.53125 -11.644531 18.9375 -12.625 C 18.34375 -13.613281 17.515625 -14.390625 16.453125 -14.953125 C 15.398438 -15.523438 14.203125 -15.8125 12.859375 -15.8125 C 11.503906 -15.8125 10.296875 -15.523438 9.234375 -14.953125 C 8.179688 -14.390625 7.359375 -13.613281 6.765625 -12.625 C 6.171875 -11.644531 5.875 -10.503906 5.875 -9.203125 Z M 5.875 -9.203125 "/></g></g></g></g></g><g transform="matrix(1, 0, 0, 1, 41, 391)"><g clip-path="url(#92dc0d5b85)"><g fill="#000000" fill-opacity="1"><g transform="translate(0.733196, 44.930843)"><g><path d="M 4.140625 0 L 4.140625 -28.390625 L 15.125 -28.390625 C 17.851562 -28.390625 20.035156 -27.703125 21.671875 -26.328125 C 23.304688 -24.960938 24.125 -23.132812 24.125 -20.84375 C 24.125 -19.457031 23.796875 -18.238281 23.140625 -17.1875 C 22.492188 -16.132812 21.59375 -15.3125 20.4375 -14.71875 C 21.894531 -14.125 23.007812 -13.242188 23.78125 -12.078125 C 24.550781 -10.921875 24.9375 -9.546875 24.9375 -7.953125 C 24.9375 -5.484375 24.101562 -3.539062 22.4375 -2.125 C 20.78125 -0.707031 18.519531 0 15.65625 0 Z M 7.703125 -3.328125 L 15.5625 -3.328125 C 17.40625 -3.328125 18.816406 -3.742188 19.796875 -4.578125 C 20.785156 -5.421875 21.28125 -6.597656 21.28125 -8.109375 C 21.28125 -9.617188 20.78125 -10.785156 19.78125 -11.609375 C 18.78125 -12.441406 17.363281 -12.859375 15.53125 -12.859375 L 7.703125 -12.859375 Z M 7.703125 -16.09375 L 15.046875 -16.09375 C 16.796875 -16.09375 18.132812 -16.484375 19.0625 -17.265625 C 20 -18.054688 20.46875 -19.15625 20.46875 -20.5625 C 20.46875 -21.988281 19.992188 -23.09375 19.046875 -23.875 C 18.109375 -24.664062 16.773438 -25.0625 15.046875 -25.0625 L 7.703125 -25.0625 Z M 7.703125 -16.09375 "/></g></g></g><g fill="#000000" fill-opacity="1"><g transform="translate(30.370941, 44.930843)"><g><path d="M 0.6875 0 L 12.359375 -28.390625 L 15.6875 -28.390625 L 27.375 0 L 23.59375 0 L 20.921875 -6.453125 L 7.09375 -6.453125 L 4.5 0 Z M 8.46875 -9.765625 L 19.578125 -9.765625 L 14.03125 -23.390625 Z M 8.46875 -9.765625 "/></g></g></g><g fill="#000000" fill-opacity="1"><g transform="translate(60.860104, 44.930843)"><g><path d="M 13.578125 0.53125 C 11.304688 0.53125 9.335938 0.144531 7.671875 -0.625 C 6.015625 -1.394531 4.734375 -2.472656 3.828125 -3.859375 C 2.921875 -5.253906 2.457031 -6.875 2.4375 -8.71875 L 6 -8.71875 C 6.050781 -6.90625 6.773438 -5.476562 8.171875 -4.4375 C 9.566406 -3.394531 11.367188 -2.875 13.578125 -2.875 C 15.578125 -2.875 17.164062 -3.265625 18.34375 -4.046875 C 19.519531 -4.835938 20.109375 -5.9375 20.109375 -7.34375 C 20.109375 -8.664062 19.539062 -9.722656 18.40625 -10.515625 C 17.269531 -11.316406 15.421875 -12.015625 12.859375 -12.609375 C 9.367188 -13.441406 6.8125 -14.515625 5.1875 -15.828125 C 3.5625 -17.140625 2.75 -18.890625 2.75 -21.078125 C 2.75 -23.484375 3.660156 -25.390625 5.484375 -26.796875 C 7.316406 -28.203125 9.785156 -28.90625 12.890625 -28.90625 C 16.078125 -28.90625 18.597656 -28.109375 20.453125 -26.515625 C 22.304688 -24.921875 23.25 -22.742188 23.28125 -19.984375 L 19.75 -19.984375 C 19.71875 -21.691406 19.085938 -23.035156 17.859375 -24.015625 C 16.628906 -25.003906 14.972656 -25.5 12.890625 -25.5 C 10.867188 -25.5 9.28125 -25.097656 8.125 -24.296875 C 6.976562 -23.503906 6.40625 -22.429688 6.40625 -21.078125 C 6.40625 -19.921875 6.9375 -18.941406 8 -18.140625 C 9.070312 -17.347656 10.988281 -16.613281 13.75 -15.9375 C 17.363281 -15.039062 19.941406 -13.921875 21.484375 -12.578125 C 23.023438 -11.242188 23.796875 -9.535156 23.796875 -7.453125 C 23.796875 -4.992188 22.867188 -3.046875 21.015625 -1.609375 C 19.171875 -0.179688 16.691406 0.53125 13.578125 0.53125 Z M 13.578125 0.53125 "/></g></g></g><g fill="#000000" fill-opacity="1"><g transform="translate(89.524763, 44.930843)"><g><path d="M 4.140625 0 L 4.140625 -28.390625 L 21.375 -28.390625 L 21.375 -25.0625 L 7.703125 -25.0625 L 7.703125 -16.09375 L 20.359375 -16.09375 L 20.359375 -12.8125 L 7.703125 -12.8125 L 7.703125 -3.328125 L 21.8125 -3.328125 L 21.8125 0 Z M 4.140625 0 "/></g></g></g><g fill="#000000" fill-opacity="1"><g transform="translate(116.405491, 44.930843)"><g><path d="M 4.140625 0 L 4.140625 -28.390625 L 13.953125 -28.390625 C 16.867188 -28.390625 19.414062 -27.785156 21.59375 -26.578125 C 23.769531 -25.378906 25.460938 -23.71875 26.671875 -21.59375 C 27.890625 -19.46875 28.5 -17 28.5 -14.1875 C 28.5 -11.40625 27.890625 -8.945312 26.671875 -6.8125 C 25.460938 -4.675781 23.769531 -3.003906 21.59375 -1.796875 C 19.414062 -0.597656 16.867188 0 13.953125 0 Z M 7.703125 -3.40625 L 13.953125 -3.40625 C 16.109375 -3.40625 18.003906 -3.859375 19.640625 -4.765625 C 21.273438 -5.671875 22.550781 -6.929688 23.46875 -8.546875 C 24.394531 -10.171875 24.859375 -12.050781 24.859375 -14.1875 C 24.859375 -16.351562 24.390625 -18.238281 23.453125 -19.84375 C 22.523438 -21.457031 21.234375 -22.71875 19.578125 -23.625 C 17.929688 -24.53125 16 -24.984375 13.78125 -24.984375 L 7.703125 -24.984375 Z M 7.703125 -3.40625 "/></g></g></g></g></g><g transform="matrix(1, 0, 0, 1, 1080, 391)"><g clip-path="url(#499cff2af4)"><g fill="#000000" fill-opacity="1"><g transform="translate(1.183791, 44.930843)"><g><path d="M 4.140625 0 L 4.140625 -28.390625 L 7.703125 -28.390625 L 7.703125 0 Z M 4.140625 0 "/></g></g></g><g fill="#000000" fill-opacity="1"><g transform="translate(15.455287, 44.930843)"><g><path d="M 4.140625 0 L 4.140625 -28.390625 L 7.5 -28.390625 L 23.1875 -6.15625 L 23.1875 -28.390625 L 26.6875 -28.390625 L 26.6875 0 L 23.359375 0 L 7.65625 -22.21875 L 7.65625 0 Z M 4.140625 0 "/></g></g></g><g fill="#000000" fill-opacity="1"><g transform="translate(48.701466, 44.930843)"><g/></g></g><g fill="#000000" fill-opacity="1"><g transform="translate(61.189031, 44.930843)"><g><path d="M 22.75 0 L 22.75 -12.765625 L 7.703125 -12.765625 L 7.703125 0 L 4.140625 0 L 4.140625 -28.390625 L 7.703125 -28.390625 L 7.703125 -16.171875 L 22.75 -16.171875 L 22.75 -28.390625 L 26.3125 -28.390625 L 26.3125 0 Z M 22.75 0 "/></g></g></g><g fill="#000000" fill-opacity="1"><g transform="translate(94.070309, 44.930843)"><g><path d="M 0.6875 0 L 12.359375 -28.390625 L 15.6875 -28.390625 L 27.375 0 L 23.59375 0 L 20.921875 -6.453125 L 7.09375 -6.453125 L 4.5 0 Z M 8.46875 -9.765625 L 19.578125 -9.765625 L 14.03125 -23.390625 Z M 8.46875 -9.765625 "/></g></g></g><g fill="#000000" fill-opacity="1"><g transform="translate(124.559472, 44.930843)"><g><path d="M 4.140625 0 L 4.140625 -28.390625 L 7.5 -28.390625 L 23.1875 -6.15625 L 23.1875 -28.390625 L 26.6875 -28.390625 L 26.6875 0 L 23.359375 0 L 7.65625 -22.21875 L 7.65625 0 Z M 4.140625 0 "/></g></g></g><g fill="#000000" fill-opacity="1"><g transform="translate(157.805651, 44.930843)"><g><path d="M 17.03125 0.53125 C 14.164062 0.53125 11.625 -0.0976562 9.40625 -1.359375 C 7.1875 -2.617188 5.457031 -4.351562 4.21875 -6.5625 C 2.976562 -8.78125 2.359375 -11.320312 2.359375 -14.1875 C 2.359375 -17.082031 2.976562 -19.628906 4.21875 -21.828125 C 5.457031 -24.035156 7.1875 -25.765625 9.40625 -27.015625 C 11.625 -28.273438 14.164062 -28.90625 17.03125 -28.90625 C 19.925781 -28.90625 22.472656 -28.273438 24.671875 -27.015625 C 26.878906 -25.765625 28.609375 -24.035156 29.859375 -21.828125 C 31.117188 -19.628906 31.75 -17.082031 31.75 -14.1875 C 31.75 -11.320312 31.117188 -8.78125 29.859375 -6.5625 C 28.609375 -4.351562 26.878906 -2.617188 24.671875 -1.359375 C 22.472656 -0.0976562 19.925781 0.53125 17.03125 0.53125 Z M 6 -14.1875 C 6 -12 6.460938 -10.066406 7.390625 -8.390625 C 8.328125 -6.710938 9.625 -5.398438 11.28125 -4.453125 C 12.945312 -3.515625 14.863281 -3.046875 17.03125 -3.046875 C 19.21875 -3.046875 21.132812 -3.515625 22.78125 -4.453125 C 24.4375 -5.398438 25.726562 -6.710938 26.65625 -8.390625 C 27.59375 -10.066406 28.0625 -12 28.0625 -14.1875 C 28.0625 -16.40625 27.59375 -18.34375 26.65625 -20 C 25.726562 -21.664062 24.4375 -22.972656 22.78125 -23.921875 C 21.132812 -24.867188 19.21875 -25.34375 17.03125 -25.34375 C 14.863281 -25.34375 12.945312 -24.867188 11.28125 -23.921875 C 9.625 -22.972656 8.328125 -21.664062 7.390625 -20 C 6.460938 -18.34375 6 -16.40625 6 -14.1875 Z M 6 -14.1875 "/></g></g></g><g fill="#000000" fill-opacity="1"><g transform="translate(194.295363, 44.930843)"><g><path d="M 4.140625 0 L 4.140625 -28.390625 L 7.703125 -28.390625 L 7.703125 0 Z M 4.140625 0 "/></g></g></g></g></g></g></g></svg>